<?xml version="1.0" encoding="utf-8"?>
<!-- Generator: Adobe Illustrator 24.1.0, SVG Export Plug-In . SVG Version: 6.00 Build 0)  -->
<svg version="1.0" xmlns="http://www.w3.org/2000/svg" xmlns:xlink="http://www.w3.org/1999/xlink" x="0px" y="0px"
	 viewBox="0 0 1200 628" style="enable-background:new 0 0 1200 628;" xml:space="preserve">
<style type="text/css">
	.st0{fill:url(#SVGID_1_);}
	.st1{opacity:0.11;fill:#A9E3F1;enable-background:new    ;}
	.st2{fill:none;}
	.st3{opacity:0.25;fill:#F83C32;enable-background:new    ;}
	.st4{fill:#FFFFFF;}
	.st5{fill:#81EAFC;}
	.st6{fill:#81EAFC;stroke:#FBD56A;stroke-width:1.21;stroke-miterlimit:10;}
	.st7{opacity:0.25;fill:#81EAFC;enable-background:new    ;}
	.st8{opacity:0.15;fill:#7AD8E2;enable-background:new    ;}
	.st9{fill:url(#SVGID_2_);}
	.st10{opacity:0.59;fill:url(#SVGID_3_);}
	.st11{fill:url(#SVGID_4_);}
	.st12{fill:url(#SVGID_5_);}
	.st13{fill:url(#SVGID_6_);}
	.st14{fill:url(#SVGID_7_);}
	.st15{opacity:0.13;enable-background:new    ;}
	.st16{opacity:0.58;}
	.st17{fill:#085BB9;}
	.st18{fill:#002040;}
	.st19{fill:#E6950C;}
	.st20{fill:#A8CEE1;}
	.st21{fill:#50355D;}
	.st22{fill:#FF9969;}
	.st23{fill:#FFC1A3;}
	.st24{fill:#E7F2F2;}
	.st25{fill:#FBD56A;}
	.st26{fill:url(#SVGID_8_);}
	.st27{fill:#002851;}
	.st28{fill:#637382;}
	.st29{fill:#7E93A8;}
	.st30{fill:#F2F2F2;}
	.st31{opacity:0.66;fill:url(#SVGID_9_);}
	.st32{display:none;fill:#478CB6;}
</style>
<g id="fondo">
</g>
<g id="Capa_3">
	
		<linearGradient id="SVGID_1_" gradientUnits="userSpaceOnUse" x1="599.5826" y1="43.0994" x2="599.5826" y2="630.1295" gradientTransform="matrix(1 0 0 -1 0 630)">
		<stop  offset="0.34" style="stop-color:#67A5DA"/>
		<stop  offset="1" style="stop-color:#446A93"/>
	</linearGradient>
	<rect x="-1.2" y="-0.1" class="st0" width="1201.6" height="587"/>
	<path class="st1" d="M1172.7,627.2l-0.5-17.1c17.5-20,27.2-45.9,27.2-72.8c0-29.1-11.3-57-31.5-77.5c9.4-17.5,3.1-39.4-14-48.9
		c-17.1-9.6-38.6-3.2-47.9,14.3c-0.6,1.1-1.2,2.3-1.6,3.5c-4.1-0.5-8.1-0.7-12.2-0.7c-2.7,0-5.3,0.1-7.9,0.3c0.2-2.5,0.3-5,0.3-7.6
		c0-60.5-48-109.5-107.3-109.5c-14.8,0-29.4,3.1-42.9,9.2c10.4-41.6-14.2-84-54.9-94.6c-36.7-9.6-74.8,9.9-89.2,45.6
		c-24,5.1-45.6,18.4-61.1,37.8c-36-21.7-81.1-20.1-115.5,4.3c-6.3-1.7-12.9-2.6-19.4-2.6c-2.6,0-5.3,0.1-7.9,0.4
		c0.3-3.4,0.5-6.9,0.5-10.4c0-60.5-48-109.5-107.2-109.5s-107.2,49-107.2,109.5c0,0.1,0,0.2,0,0.3c-10.4,0.9-20.6,4-29.8,9.1
		c-34.5-49.1-101.5-60.4-149.6-25.2c-22,16.1-37.2,40.1-42.6,67.1C112.7,333,66.9,348.4,48,386.7c-4.5,9.1-7.2,19.1-7.9,29.2
		c-19.2-2.9-37,10.6-39.9,30.1c-0.3,1.8-0.4,3.7-0.4,5.5l0.5,175.6"/>
	<polygon class="st2" points="1199.7,626.4 -1.2,626.4 -2.7,53.8 1198.2,53.8 	"/>
	<circle class="st3" cx="1073.5" cy="67.2" r="2"/>
	<circle class="st4" cx="1162.2" cy="69.1" r="2"/>
	<circle class="st5" cx="981.4" cy="76" r="2"/>
	<circle class="st6" cx="773.8" cy="92.7" r="2"/>
	<circle class="st5" cx="885.7" cy="43.8" r="1.3"/>
	
		<ellipse transform="matrix(0.2538 -0.9673 0.9673 0.2538 653.3456 1083.4731)" class="st7" cx="1028.9" cy="118.3" rx="2.7" ry="2.7"/>
	<circle class="st4" cx="1140.5" cy="194.4" r="2"/>
	<circle class="st3" cx="400.6" cy="68.6" r="2"/>
	<circle class="st4" cx="489.3" cy="70.5" r="2"/>
	<circle class="st5" cx="308.5" cy="77.5" r="2"/>
	<circle class="st6" cx="100.9" cy="94.1" r="2"/>
	<path class="st8" d="M1200.8,275.7c-18.7-27.5-43.7-38.3-71.3-38.3c0,0,0,0,0,0c-0.7,0-1.4,0-2.1,0v0c0-21.1-17-38.2-38-38.2
		c-10.8,0-21.1,4.6-28.3,12.7c-17.2-11.6-37.5-17.8-58.2-17.8c-4.5,0-9.1,0.3-13.6,0.9c-11.3-29.5-39.5-49-71.1-49h-0.1
		c-16.1-55.5-74-87.4-129.4-71.2c-38.5,11.3-67.2,43.7-73.7,83.4c-0.5,0-0.9,0-1.4,0c-3.7,0-7.4,0.2-11.1,0.6
		c-21.8-36.1-68.6-47.5-104.6-25.6c-5.4,3.3-10.4,7.2-14.8,11.8c-15-8-31.8-12.2-48.8-12.2c-5.2,0-10.4,0.4-15.5,1.2
		c-5.2-15.6-19.7-26.1-36.1-26.1c-0.6,0-1.2,0.1-1.8,0.1C460,71.3,413.5,58.7,377,79.8c-19.7,11.4-33.3,31-37.1,53.5h-1.1
		c-18.2,0-35.9,6.5-49.7,18.5c-31.6-48.3-96.3-61.8-144.5-30.1c-26.9,17.7-44.2,47-46.8,79.2c-40.7-10.6-82.3,14-92.8,54.9
		c-1.6,6.3-2.4,12.7-2.4,19.1L1.8,606.1h1196.6l0.9-186.1c0.5-0.5,1-0.9,1.5,8.6V275.7z"/>
	<circle class="st5" cx="212.7" cy="45.2" r="1.3"/>
	<circle class="st5" cx="50.3" cy="152.5" r="1.3"/>
	<ellipse transform="matrix(0.2538 -0.9673 0.9673 0.2538 149.812 433.6494)" class="st7" cx="356" cy="119.7" rx="2.7" ry="2.7"/>
	<circle class="st4" cx="190.2" cy="109" r="2"/>
	
		<radialGradient id="SVGID_2_" cx="612.5976" cy="2570.6406" r="19.73" gradientTransform="matrix(1 0 0 1 0 -2368)" gradientUnits="userSpaceOnUse">
		<stop  offset="0.13" style="stop-color:#FFFFFF;stop-opacity:0"/>
		<stop  offset="1" style="stop-color:#FFFFFF"/>
	</radialGradient>
	<circle class="st9" cx="612.6" cy="75.3" r="4.6"/>
	<circle class="st4" cx="44.5" cy="61.8" r="1.9"/>
	
		<linearGradient id="SVGID_3_" gradientUnits="userSpaceOnUse" x1="1046.0458" y1="586.3574" x2="1100.4093" y2="492.1794" gradientTransform="matrix(1 0 0 -1 0 630)">
		<stop  offset="0" style="stop-color:#FFFFFF"/>
		<stop  offset="1" style="stop-color:#FFFFFF;stop-opacity:0"/>
	</linearGradient>
	<circle class="st10" cx="1077.1" cy="97.5" r="56.5"/>
	<rect x="937.4" y="445" class="st2" width="20.4" height="54.2"/>
	
		<linearGradient id="SVGID_4_" gradientUnits="userSpaceOnUse" x1="-0.2824" y1="48.9855" x2="1199.9972" y2="48.9855" gradientTransform="matrix(1 0 0 -1 0 630)">
		<stop  offset="0" style="stop-color:#A2C580"/>
		<stop  offset="1" style="stop-color:#40675E"/>
	</linearGradient>
	<path class="st11" d="M-0.3,576.7c0,0,111.1-36.3,261.4-42.4c165.6-6.8,567.6,42.2,676.9,42.4c96.9,0.2,261.9,8.5,261.9,8.5v42.8
		L0.6,628.4L-0.3,576.7z"/>
	<g>
		
			<linearGradient id="SVGID_5_" gradientUnits="userSpaceOnUse" x1="94.458" y1="129.5945" x2="176.6686" y2="129.5945" gradientTransform="matrix(1 0 0 -1 0 630)">
			<stop  offset="0" style="stop-color:#A2C580"/>
			<stop  offset="1" style="stop-color:#40675E"/>
		</linearGradient>
		<path class="st12" d="M175.6,438.2c-1.9,5.7-5.8,10.5-9.5,15.3c-25.8,33.6-45.1,71.8-56.8,112.6c-1.2,4.4-2.4,8.9-5.2,12.6
			c-3.5,4.7-5.7,5.6-7.2,4.4c-2.3-1.9-2.6-9-2.4-13.6c0.6-11.2,1.7-22.3,3.4-33.4c3.2-21.7,8.4-43.1,15.5-63.9
			c7-20.4,17.2-41.7,36.3-51.6c5.5-2.9,12.6-4.3,18.2-2.4c1.8,0.6,3.5,1.7,4.8,3.1C177.1,425.5,177.5,432.5,175.6,438.2z"/>
		
			<linearGradient id="SVGID_6_" gradientUnits="userSpaceOnUse" x1="23.0133" y1="125.3102" x2="103.832" y2="125.3102" gradientTransform="matrix(1 0 0 -1 0 630)">
			<stop  offset="0" style="stop-color:#A2C580"/>
			<stop  offset="1" style="stop-color:#40675E"/>
		</linearGradient>
		<path class="st13" d="M101.2,581.8L101.2,581.8c-1,1.2-2.6,1.9-4.2,1.7c-5.5-0.5-11.9-14.7-14.5-18.5c-4.3-6.1-8.8-12.1-13.4-18.2
			l-2.7-3.5c-2.3-3-4.6-6.1-6.8-9c-2.8-3.7-5.5-7.5-8.2-11.3c-15.1-21.6-27.9-46.2-28.4-72.6c-0.2-10,3.3-22.1,13-24.3
			c0.5-0.1,1.1-0.2,1.7-0.3c8.1-0.8,15.3,6.2,20.4,12.9c2.2,2.8,4.2,5.6,6.2,8.5c1.4,1.9,2.7,3.9,3.9,5.8
			c21.9,33.8,34.2,73,35.5,113.3C103.9,570.3,104.1,578.3,101.2,581.8z"/>
		
			<linearGradient id="SVGID_7_" gradientUnits="userSpaceOnUse" x1="68.7096" y1="158.2586" x2="120.2898" y2="158.2586" gradientTransform="matrix(1 0 0 -1 0 630)">
			<stop  offset="0" style="stop-color:#A2C580"/>
			<stop  offset="1" style="stop-color:#40675E"/>
		</linearGradient>
		<path class="st14" d="M120,384.3c-4.2,55.8-8.4,111.5-12.7,167.3c-0.6,7.5-1.9,43.1-14.1,28.4c-8.7-10.5-9-36.5-11.5-49.6
			c-0.1-0.8-0.3-1.5-0.4-2.3c-6.5-35-11.5-70.4-12.5-106c-0.3-10.9-0.2-21.9,2.7-32.4c2.9-10.5,8.9-20.5,18.2-26.1
			c5.7-3.5,12.6-4.5,19.1-2.9c3.8,1,7,3.4,9.1,6.7C120.8,372.4,120.4,378.5,120,384.3z"/>
		<path class="st15" d="M103,579.7c0,0,3.4-1.3,6.3-13.6c9.7-41.2,31.1-79.1,56.8-112.6c3.6-4.8,7.6-9.6,9.5-15.3
			c1.9-5.7,1.5-12.7-2.7-16.9c-1.4-1.4-3-2.4-4.8-3.1c0,0.6,0.1,1.2,0.1,1.8c0.4,4,0.2,8.1-0.7,12.1c-1.7,7-5,13.6-9.7,19.1
			c-14.2,17.7-28.6,34.6-40,54.5c-11.1,19.4-7.9,17.5-11.1,52.5C106.3,562.9,106.1,572.4,103,579.7"/>
		<path class="st15" d="M120,384.3c-4.2,55.8-8.4,111.5-12.7,167.3c-0.6,7.5-1.9,43.1-14.1,28.4c-8.7-10.5-9-36.5-11.5-49.6
			c-0.1-0.8-0.3-1.5-0.4-2.3c3.6-10.9,9.3-21.4,11.6-32.6c9.6-47.7,11.7-84.7,13.8-127.7c0.2-3.4,1-5.7,2.2-7c3.8,1,7,3.4,9.1,6.7
			C120.8,372.4,120.4,378.5,120,384.3z"/>
	</g>
	<g>
		<g class="st16">
			<rect x="464.5" y="90" class="st4" width="5.7" height="45"/>
		</g>
		<g>
			<path class="st17" d="M636,113.4v19.1H204.7v-19.1c0-12.3,10-22.3,22.3-22.3h386.9C626.1,91.1,636,101.1,636,113.4z"/>
			<path class="st18" d="M636,132.5v227.6c0,12.3-9.9,22.2-22.2,22.2H226.9c-12.3,0-22.3-9.9-22.3-22.2V132.5H636z"/>
			<rect x="218.7" y="153.1" class="st4" width="4.4" height="34.5"/>
			<g>
				<path class="st4" d="M242.1,157.6l-7.6,3l7.6,3v1.8l-9.7-3.8v-1.9l9.7-3.8V157.6z"/>
				<path class="st4" d="M255.1,157.8c0.9,0.8,1.3,2.1,1.3,3.7v6.6h-2.1v-6.3c0-1.1-0.3-1.9-0.8-2.5c-0.5-0.6-1.3-0.8-2.3-0.8
					c-1.1,0-2,0.3-2.7,1c-0.6,0.7-1,1.6-1,2.8v5.9h-2.1v-16h2.1v6.2c0.4-0.5,1-1,1.7-1.3c0.7-0.3,1.5-0.5,2.3-0.5
					C253.1,156.6,254.2,157,255.1,157.8z"/>
				<path class="st4" d="M266.6,167.4c-0.3,0.3-0.7,0.5-1.1,0.6c-0.4,0.1-0.9,0.2-1.4,0.2c-1.1,0-2-0.3-2.7-0.9
					c-0.6-0.6-0.9-1.5-0.9-2.7v-6.3h-1.9v-1.7h1.9v-2.5h2.1v2.5h3.3v1.7h-3.3v6.2c0,0.6,0.2,1.1,0.5,1.4c0.3,0.3,0.8,0.5,1.3,0.5
					c0.6,0,1.2-0.2,1.6-0.5L266.6,167.4z"/>
				<path class="st4" d="M286.8,157.8c0.8,0.8,1.3,2.1,1.3,3.7v6.6H286v-6.3c0-1.1-0.3-1.9-0.8-2.5c-0.5-0.6-1.2-0.8-2.2-0.8
					c-1,0-1.9,0.3-2.5,1c-0.6,0.7-0.9,1.6-0.9,2.8v5.9h-2.1v-6.3c0-1.1-0.3-1.9-0.8-2.5c-0.5-0.6-1.2-0.8-2.2-0.8
					c-1,0-1.9,0.3-2.5,1c-0.6,0.7-0.9,1.6-0.9,2.8v5.9h-2.1v-11.4h2v1.7c0.4-0.6,1-1,1.6-1.3c0.7-0.3,1.4-0.5,2.3-0.5
					c0.9,0,1.7,0.2,2.4,0.5c0.7,0.4,1.2,0.9,1.6,1.6c0.4-0.7,1-1.2,1.8-1.6c0.8-0.4,1.6-0.6,2.6-0.6
					C284.9,156.6,286,157,286.8,157.8z"/>
				<path class="st4" d="M291.9,152.1h2.1v16h-2.1V152.1z"/>
				<path class="st4" d="M307.1,159.6v1.9l-9.7,3.8v-1.8l7.7-3l-7.7-3v-1.8L307.1,159.6z"/>
				<path class="st19" d="M265.3,183.5l-7.6,3l7.6,3v1.8l-9.7-3.8v-1.9l9.7-3.8V183.5z"/>
				<path class="st19" d="M278.3,183.7c0.9,0.8,1.3,2.1,1.3,3.7v6.6h-2.1v-6.3c0-1.1-0.3-1.9-0.8-2.5c-0.5-0.6-1.3-0.8-2.3-0.8
					c-1.1,0-2,0.3-2.7,1c-0.6,0.7-1,1.6-1,2.8v5.9h-2.1v-16h2.1v6.2c0.4-0.5,1-1,1.7-1.3c0.7-0.3,1.5-0.5,2.3-0.5
					C276.3,182.4,277.4,182.9,278.3,183.7z"/>
				<path class="st19" d="M293.7,188.9h-9.3c0.1,1,0.6,1.8,1.3,2.4c0.8,0.6,1.7,0.9,2.8,0.9c1.4,0,2.5-0.5,3.3-1.4l1.1,1.3
					c-0.5,0.6-1.2,1.1-1.9,1.4c-0.8,0.3-1.6,0.5-2.6,0.5c-1.2,0-2.3-0.2-3.2-0.7c-0.9-0.5-1.7-1.2-2.2-2.1c-0.5-0.9-0.8-1.9-0.8-3
					c0-1.1,0.2-2.1,0.7-3c0.5-0.9,1.2-1.6,2-2.1c0.9-0.5,1.8-0.7,2.9-0.7c1.1,0,2.1,0.2,2.9,0.7c0.9,0.5,1.5,1.2,2,2.1
					c0.5,0.9,0.7,1.9,0.7,3.1C293.8,188.5,293.8,188.7,293.7,188.9z M285.6,185.1c-0.7,0.6-1.1,1.4-1.2,2.4h7.3
					c-0.1-1-0.5-1.7-1.2-2.4c-0.7-0.6-1.5-0.9-2.5-0.9C287.1,184.2,286.3,184.5,285.6,185.1z"/>
				<path class="st19" d="M304.1,183.6c0.8,0.8,1.3,1.9,1.3,3.5v6.9h-2v-1.5c-0.3,0.5-0.8,0.9-1.5,1.2c-0.6,0.3-1.4,0.4-2.3,0.4
					c-1.3,0-2.3-0.3-3.1-0.9c-0.8-0.6-1.2-1.4-1.2-2.4c0-1,0.4-1.8,1.1-2.4c0.7-0.6,1.9-0.9,3.5-0.9h3.3V187c0-0.9-0.3-1.6-0.8-2
					c-0.5-0.5-1.3-0.7-2.3-0.7c-0.7,0-1.3,0.1-2,0.3c-0.6,0.2-1.2,0.5-1.6,0.9l-0.9-1.6c0.6-0.5,1.3-0.8,2.1-1.1
					c0.8-0.3,1.7-0.4,2.6-0.4C302.1,182.4,303.3,182.8,304.1,183.6z M302.1,192c0.6-0.4,1-0.9,1.2-1.5v-1.6h-3.2
					c-1.8,0-2.6,0.6-2.6,1.8c0,0.6,0.2,1,0.7,1.4c0.4,0.3,1.1,0.5,1.9,0.5S301.5,192.3,302.1,192z"/>
				<path class="st19" d="M320,178v16h-2v-1.8c-0.5,0.6-1,1.1-1.7,1.4c-0.7,0.3-1.5,0.5-2.3,0.5c-1.1,0-2.1-0.2-3-0.7
					c-0.9-0.5-1.6-1.2-2.1-2.1c-0.5-0.9-0.7-1.9-0.7-3c0-1.1,0.2-2.2,0.7-3c0.5-0.9,1.2-1.6,2.1-2c0.9-0.5,1.9-0.7,3-0.7
					c0.8,0,1.6,0.2,2.3,0.5c0.7,0.3,1.3,0.8,1.7,1.4V178H320z M316.1,191.8c0.6-0.3,1-0.8,1.4-1.4c0.3-0.6,0.5-1.3,0.5-2.1
					c0-0.8-0.2-1.5-0.5-2.1c-0.3-0.6-0.8-1.1-1.4-1.4c-0.6-0.3-1.2-0.5-2-0.5c-0.7,0-1.4,0.2-2,0.5c-0.6,0.3-1,0.8-1.4,1.4
					c-0.3,0.6-0.5,1.3-0.5,2.1c0,0.8,0.2,1.5,0.5,2.1c0.3,0.6,0.8,1.1,1.4,1.4c0.6,0.3,1.2,0.5,2,0.5
					C314.9,192.3,315.5,192.1,316.1,191.8z"/>
				<path class="st19" d="M333.1,185.5v1.9l-9.7,3.8v-1.8l7.7-3l-7.7-3v-1.8L333.1,185.5z"/>
				<path class="st20" d="M288.5,209.3l-7.6,3l7.6,3v1.8l-9.7-3.8v-1.9l9.7-3.8V209.3z"/>
				<path class="st20" d="M298.3,219.2c-0.3,0.3-0.7,0.5-1.1,0.6c-0.4,0.1-0.9,0.2-1.4,0.2c-1.1,0-2-0.3-2.7-0.9
					c-0.6-0.6-0.9-1.5-0.9-2.7v-6.3h-1.9v-1.7h1.9v-2.5h2.1v2.5h3.3v1.7h-3.3v6.2c0,0.6,0.2,1.1,0.5,1.4c0.3,0.3,0.8,0.5,1.3,0.5
					c0.6,0,1.2-0.2,1.6-0.5L298.3,219.2z"/>
				<path class="st20" d="M300.9,205.8c-0.3-0.3-0.4-0.6-0.4-0.9s0.1-0.7,0.4-1c0.3-0.3,0.6-0.4,1-0.4c0.4,0,0.7,0.1,1,0.4
					c0.3,0.3,0.4,0.6,0.4,0.9c0,0.4-0.1,0.7-0.4,1c-0.3,0.3-0.6,0.4-1,0.4C301.5,206.2,301.1,206.1,300.9,205.8z M300.8,208.4h2.1
					v11.4h-2.1V208.4z"/>
				<path class="st20" d="M313.3,219.2c-0.3,0.3-0.7,0.5-1.1,0.6c-0.4,0.1-0.9,0.2-1.4,0.2c-1.1,0-2-0.3-2.7-0.9
					c-0.6-0.6-0.9-1.5-0.9-2.7v-6.3h-1.9v-1.7h1.9v-2.5h2.1v2.5h3.3v1.7h-3.3v6.2c0,0.6,0.2,1.1,0.5,1.4c0.3,0.3,0.8,0.5,1.3,0.5
					c0.6,0,1.2-0.2,1.6-0.5L313.3,219.2z"/>
				<path class="st20" d="M315.8,203.8h2.1v16h-2.1V203.8z"/>
				<path class="st20" d="M332.1,214.8h-9.3c0.1,1,0.6,1.8,1.3,2.4c0.8,0.6,1.7,0.9,2.8,0.9c1.4,0,2.5-0.5,3.3-1.4l1.1,1.3
					c-0.5,0.6-1.2,1.1-1.9,1.4c-0.8,0.3-1.6,0.5-2.6,0.5c-1.2,0-2.3-0.2-3.2-0.7c-0.9-0.5-1.7-1.2-2.2-2.1c-0.5-0.9-0.8-1.9-0.8-3
					c0-1.1,0.2-2.1,0.7-3c0.5-0.9,1.2-1.6,2-2.1c0.9-0.5,1.8-0.7,2.9-0.7c1.1,0,2.1,0.2,2.9,0.7c0.9,0.5,1.5,1.2,2,2.1
					c0.5,0.9,0.7,1.9,0.7,3.1C332.1,214.3,332.1,214.5,332.1,214.8z M324,210.9c-0.7,0.6-1.1,1.4-1.2,2.4h7.3
					c-0.1-1-0.5-1.7-1.2-2.4c-0.7-0.6-1.5-0.9-2.5-0.9C325.5,210,324.6,210.3,324,210.9z"/>
				<path class="st20" d="M344.1,211.4v1.9l-9.7,3.8v-1.8l7.7-3l-7.7-3v-1.8L344.1,211.4z"/>
				<path class="st20" d="M347,219.5c-0.3-0.3-0.4-0.6-0.4-1.1c0-0.4,0.1-0.8,0.4-1c0.3-0.3,0.6-0.4,1-0.4s0.7,0.1,1,0.4
					c0.3,0.3,0.4,0.6,0.4,1.1c0,0.4-0.1,0.8-0.4,1.1c-0.3,0.3-0.6,0.4-1,0.4C347.6,220,347.3,219.8,347,219.5z"/>
				<path class="st20" d="M351.9,219.5c-0.3-0.3-0.4-0.6-0.4-1.1c0-0.4,0.1-0.8,0.4-1c0.3-0.3,0.6-0.4,1-0.4s0.7,0.1,1,0.4
					c0.3,0.3,0.4,0.6,0.4,1.1c0,0.4-0.1,0.8-0.4,1.1s-0.6,0.4-1,0.4C352.5,220,352.1,219.8,351.9,219.5z"/>
				<path class="st20" d="M356.7,219.5c-0.3-0.3-0.4-0.6-0.4-1.1c0-0.4,0.1-0.8,0.4-1c0.3-0.3,0.6-0.4,1-0.4s0.7,0.1,1,0.4
					c0.3,0.3,0.4,0.6,0.4,1.1c0,0.4-0.1,0.8-0.4,1.1c-0.3,0.3-0.6,0.4-1,0.4C357.4,220,357,219.8,356.7,219.5z"/>
				<path class="st20" d="M371.3,209.3l-7.6,3l7.6,3v1.8l-9.7-3.8v-1.9l9.7-3.8V209.3z"/>
				<path class="st20" d="M379.3,201.7h1.9L374,222h-1.9L379.3,201.7z"/>
				<path class="st20" d="M388.1,219.2c-0.3,0.3-0.7,0.5-1.1,0.6s-0.9,0.2-1.4,0.2c-1.1,0-2-0.3-2.7-0.9c-0.6-0.6-0.9-1.5-0.9-2.7
					v-6.3h-1.9v-1.7h1.9v-2.5h2.1v2.5h3.3v1.7h-3.3v6.2c0,0.6,0.2,1.1,0.5,1.4c0.3,0.3,0.8,0.5,1.3,0.5c0.6,0,1.2-0.2,1.6-0.5
					L388.1,219.2z"/>
				<path class="st20" d="M390.7,205.8c-0.3-0.3-0.4-0.6-0.4-0.9s0.1-0.7,0.4-1c0.3-0.3,0.6-0.4,1-0.4c0.4,0,0.7,0.1,1,0.4
					c0.3,0.3,0.4,0.6,0.4,0.9c0,0.4-0.1,0.7-0.4,1c-0.3,0.3-0.6,0.4-1,0.4C391.3,206.2,390.9,206.1,390.7,205.8z M390.6,208.4h2.1
					v11.4h-2.1V208.4z"/>
				<path class="st20" d="M403.1,219.2c-0.3,0.3-0.7,0.5-1.1,0.6s-0.9,0.2-1.4,0.2c-1.1,0-2-0.3-2.7-0.9c-0.6-0.6-0.9-1.5-0.9-2.7
					v-6.3H395v-1.7h1.9v-2.5h2.1v2.5h3.3v1.7H399v6.2c0,0.6,0.2,1.1,0.5,1.4c0.3,0.3,0.8,0.5,1.3,0.5c0.6,0,1.2-0.2,1.6-0.5
					L403.1,219.2z"/>
				<path class="st20" d="M405.6,203.8h2.1v16h-2.1V203.8z"/>
				<path class="st20" d="M421.9,214.8h-9.3c0.1,1,0.6,1.8,1.3,2.4c0.8,0.6,1.7,0.9,2.8,0.9c1.4,0,2.5-0.5,3.3-1.4l1.1,1.3
					c-0.5,0.6-1.2,1.1-1.9,1.4c-0.8,0.3-1.6,0.5-2.6,0.5c-1.2,0-2.3-0.2-3.2-0.7c-0.9-0.5-1.7-1.2-2.2-2.1c-0.5-0.9-0.8-1.9-0.8-3
					c0-1.1,0.2-2.1,0.7-3c0.5-0.9,1.2-1.6,2-2.1c0.9-0.5,1.8-0.7,2.9-0.7c1.1,0,2.1,0.2,2.9,0.7c0.9,0.5,1.5,1.2,2,2.1
					c0.5,0.9,0.7,1.9,0.7,3.1C421.9,214.3,421.9,214.5,421.9,214.8z M413.8,210.9c-0.7,0.6-1.1,1.4-1.2,2.4h7.3
					c-0.1-1-0.5-1.7-1.2-2.4c-0.7-0.6-1.5-0.9-2.5-0.9C415.3,210,414.4,210.3,413.8,210.9z"/>
				<path class="st20" d="M433.9,211.4v1.9l-9.7,3.8v-1.8l7.7-3l-7.7-3v-1.8L433.9,211.4z"/>
				<path class="st4" d="M242.1,261l-7.6,3l7.6,3v1.8l-9.7-3.8v-1.9l9.7-3.8V261z"/>
				<path class="st4" d="M250.1,253.4h1.9l-7.1,20.3H243L250.1,253.4z"/>
				<path class="st4" d="M262.7,261.3c0.9,0.8,1.3,2.1,1.3,3.7v6.6h-2.1v-6.3c0-1.1-0.3-1.9-0.8-2.5c-0.5-0.6-1.3-0.8-2.3-0.8
					c-1.1,0-2,0.3-2.7,1c-0.6,0.7-1,1.6-1,2.8v5.9h-2.1v-16h2.1v6.2c0.4-0.5,1-1,1.7-1.3c0.7-0.3,1.5-0.5,2.3-0.5
					C260.7,260,261.8,260.4,262.7,261.3z"/>
				<path class="st4" d="M274.2,270.9c-0.3,0.3-0.7,0.5-1.1,0.6c-0.4,0.1-0.9,0.2-1.4,0.2c-1.1,0-2-0.3-2.7-0.9
					c-0.6-0.6-0.9-1.5-0.9-2.7v-6.3h-1.9v-1.7h1.9v-2.5h2.1v2.5h3.3v1.7h-3.3v6.2c0,0.6,0.2,1.1,0.5,1.4c0.3,0.3,0.8,0.5,1.3,0.5
					c0.6,0,1.2-0.2,1.6-0.5L274.2,270.9z"/>
				<path class="st4" d="M294.4,261.3c0.8,0.8,1.3,2.1,1.3,3.7v6.6h-2.1v-6.3c0-1.1-0.3-1.9-0.8-2.5c-0.5-0.6-1.2-0.8-2.2-0.8
					c-1,0-1.9,0.3-2.5,1c-0.6,0.7-0.9,1.6-0.9,2.8v5.9h-2.1v-6.3c0-1.1-0.3-1.9-0.8-2.5c-0.5-0.6-1.2-0.8-2.2-0.8
					c-1,0-1.9,0.3-2.5,1c-0.6,0.7-0.9,1.6-0.9,2.8v5.9h-2.1v-11.4h2v1.7c0.4-0.6,1-1,1.6-1.3c0.7-0.3,1.4-0.5,2.3-0.5
					c0.9,0,1.7,0.2,2.4,0.5c0.7,0.4,1.2,0.9,1.6,1.6c0.4-0.7,1-1.2,1.8-1.6c0.8-0.4,1.6-0.6,2.6-0.6
					C292.4,260,293.6,260.4,294.4,261.3z"/>
				<path class="st4" d="M299.5,255.5h2.1v16h-2.1V255.5z"/>
				<path class="st4" d="M314.6,263.1v1.9l-9.7,3.8v-1.8l7.7-3l-7.7-3v-1.8L314.6,263.1z"/>
			</g>
		</g>
		<g>
			<path class="st21" d="M933.9,193.5v293.4c0,4.7-3.8,8.5-8.5,8.5H445.6c-4.7,0-8.5-3.8-8.5-8.5V193.5c0-4.7,3.8-8.5,8.5-8.5h479.9
				C930.1,185,933.9,188.8,933.9,193.5z"/>
			<path class="st22" d="M933.9,193.5v23.2H437.1v-23.2c0-4.7,3.8-8.5,8.5-8.5h479.9C930.1,185,933.9,188.8,933.9,193.5z"/>
			<g>
				<path class="st23" d="M876.7,201.9c0,3.5-2.8,6.3-6.3,6.3c-3.5,0-6.3-2.8-6.3-6.3s2.8-6.3,6.3-6.3
					C873.8,195.6,876.7,198.4,876.7,201.9z"/>
				<path class="st23" d="M898.8,201.9c0,3.5-2.8,6.3-6.3,6.3c-3.5,0-6.3-2.8-6.3-6.3s2.8-6.3,6.3-6.3
					C896,195.6,898.8,198.4,898.8,201.9z"/>
				<path class="st23" d="M921,201.9c0,3.5-2.8,6.3-6.3,6.3c-3.5,0-6.3-2.8-6.3-6.3s2.8-6.3,6.3-6.3
					C918.1,195.6,921,198.4,921,201.9z"/>
			</g>
			<rect x="476" y="228.9" class="st4" width="2.7" height="21.2"/>
			<g>
				<g>
					<path class="st24" d="M621.7,314.8V373h-13.5v-23.9h-26.4V373h-13.5v-58.2h13.5v22.9h26.4v-22.9H621.7z"/>
					<path class="st24" d="M647.5,325.8h-18.6v-11h50.7v11H661V373h-13.5V325.8z"/>
					<path class="st24" d="M739.8,373l-0.1-34.9l-17.1,28.8h-6.1l-17-28V373h-12.6v-58.2H698l21.8,36.2l21.5-36.2h11.1l0.2,58.2
						H739.8z"/>
					<path class="st24" d="M766.3,314.8h13.5V362h29.2v11h-42.7V314.8z"/>
				</g>
			</g>
			<g>
				<path class="st25" d="M728.1,248.6H488.8c-0.5,0-0.8,0.4-0.8,0.8v4.1c0,0.5,0.4,0.8,0.8,0.8h239.3c0.5,0,0.8-0.4,0.8-0.8v-4.1
					C728.9,248.9,728.6,248.6,728.1,248.6z"/>
				<path class="st19" d="M756.1,424.8H488.8c-0.5,0-0.8,0.4-0.8,0.8v4c0,0.5,0.4,0.8,0.8,0.8h267.3c0.5,0,0.8-0.4,0.8-0.8v-4
					C756.9,425.1,756.5,424.8,756.1,424.8z"/>
				<path class="st4" d="M792.8,264.6H490.4c-1.4,0-2.5,1.1-2.5,2.5l0,0c0,1.4,1.1,2.5,2.5,2.5h302.4c1.4,0,2.5-1.1,2.5-2.5l0,0
					C795.2,265.7,794.1,264.6,792.8,264.6z"/>
				<path class="st22" d="M747.1,440.5H488.8c-0.5,0-0.8,0.4-0.8,0.8v3.9c0,0.5,0.4,0.8,0.8,0.8h258.3c0.5,0,0.8-0.4,0.8-0.8v-3.9
					C747.9,440.8,747.5,440.5,747.1,440.5z"/>
				<path class="st23" d="M794.6,410.5H488.9c-0.5,0-0.9,0.4-0.9,0.9v3.9c0,0.5,0.4,0.9,0.9,0.9h305.7c0.5,0,0.9-0.4,0.9-0.9v-3.9
					C795.5,410.9,795.1,410.5,794.6,410.5z"/>
				<path class="st25" d="M882.9,264.4h-74.3c-0.5,0-0.8,0.4-0.8,0.8v3.5c0,0.5,0.4,0.8,0.8,0.8h74.3c0.5,0,0.8-0.4,0.8-0.8v-3.5
					C883.8,264.7,883.4,264.4,882.9,264.4z"/>
				<path class="st4" d="M574.6,233h-86.5c-0.5,0-0.8,0.4-0.8,0.8v3.9c0,0.5,0.4,0.8,0.8,0.8h86.5c0.5,0,0.8-0.4,0.8-0.8v-3.9
					C575.4,233.3,575,233,574.6,233z"/>
			</g>
		</g>
	</g>
</g>
<g id="Capa_1">
	<g>
		<linearGradient id="SVGID_8_" gradientUnits="userSpaceOnUse" x1="1084.1927" y1="313.8105" x2="1002.4276" y2="320.3135">
			<stop  offset="0" style="stop-color:#FF9969"/>
			<stop  offset="1" style="stop-color:#FFC1A3"/>
		</linearGradient>
		<path class="st26" d="M1019.4,284.7c1.4-0.4,28.2,28.6,29.5,39.4c1.3,10.8-13.3,27.7-13.3,27.7S1018.3,285.2,1019.4,284.7z"/>
		<path class="st27" d="M1007.4,582.4c0,0-1,15.2-3.9,15.4c-0.4,0-15,0-15,0l-18.6-0.1c0,0,0.1-4.5,5.6-5.4
			c5.4-0.9,14.5-4.7,17.8-11.9C996.8,572.8,1007.4,582.4,1007.4,582.4z"/>
		<path class="st27" d="M1048.8,582.5c0,0-1,15.2-3.9,15.4c-0.4,0-15,0-15,0l-18.6-0.1c0,0,0.1-4.5,5.6-5.4
			c5.4-0.9,14.5-4.7,17.8-11.9C1038.2,572.9,1048.8,582.5,1048.8,582.5z"/>
		<path class="st28" d="M987.2,418.5c0,0,4.8,31.1,22.8,86.3c18,55.2,20.4,79.1,20.4,79.1l19.5-0.5c0,0,0.3-60.3-8-88.1
			c-8.3-27.8-1.6-100.1-1.6-100.1L987.2,418.5z"/>
		<path class="st29" d="M977.8,396.9c0,0-0.8,46.9,7.2,104.4c8,57.5,5.2,82,5.2,82l19.4,0.7c0,0,11.7-57.5,8.5-86.3
			c-3.3-28.8,16.1-98.8,16.1-98.8L977.8,396.9z"/>
		<path class="st30" d="M1015.6,287.4l-10.4,6.8l-14.9-2.8c0.2-1.2,1.2-6.2,2.1-10.7c0.1-0.3,0.1-0.5,0.2-0.8
			c0.8-3.9,1.5-7.2,1.5-7.2l14-6.1l5.2-2.3c0,0.1-0.4,4.3-0.5,4.9C1011.7,280,1015.6,287.4,1015.6,287.4z"/>
		<path class="st23" d="M994.1,283.9c0.3-0.1,18-5.3,19.9-4.7c1.9,0.6,3.1,4.4,3.1,4.4l-29,6.5C988.1,290.1,990.4,285.4,994.1,283.9
			z"/>
		<path class="st23" d="M1041.6,402.8c-3,13.7-53,15.2-65.9,2.7c-1.5-1.4-1.5-8-0.9-16.9c1.1-17.4,6.1-43.7,6.2-57.1
			c0.1-6.4-0.4-12.8,0.7-18.8c2.5-12.8,6.4-22.8,6.4-22.8s24.4-7.8,29-6.5C1039.1,290.1,1044.6,389.2,1041.6,402.8z"/>
		<linearGradient id="SVGID_9_" gradientUnits="userSpaceOnUse" x1="983.0304" y1="331.5981" x2="996.2182" y2="419.3585">
			<stop  offset="0" style="stop-color:#FF9969"/>
			<stop  offset="1" style="stop-color:#FFC1A3"/>
		</linearGradient>
		<path class="st31" d="M974.8,388.7c1.1-17.4,6-43.1,6.2-56.4c0.1-6.4-0.4-13.4,0.8-19.4l14.7-2.6
			C996.4,310.3,1010.7,368.9,974.8,388.7z"/>
		<path class="st4" d="M982.8,364.5c0,0,1,2.4-1.1,4c-2.1,1.6-3.5,4.2-3,6.1c0.5,1.9,5.1,5,6.7,4.5c1.6-0.5,4.9-3,4.5-4
			c-0.3-1,2.2-8.8-1.7-11.8C984.3,360.3,982.8,364.5,982.8,364.5z"/>
		<path class="st23" d="M999.3,286.6c0,0-14.3,2.6-25.8,19.4c-11.4,16.8-19,29.3-16.9,35.3c2.1,6.1,21.2,27.1,24.5,27.1
			c3.3,0,8.6-2.4,8.9-7.8c0,0-13.4-20.2-10.8-23.3c1.1-1.3,17.5-14.6,19.9-8.5C1003.1,338.8,999.3,286.6,999.3,286.6z"/>
		<path class="st4" d="M988.7,271.7c0,0,22.5,7.1,26.7-7c4.2-14.1,9.9-22.6-4.3-27.7c-14.2-5.1-18.6-0.6-21.1,3.8
			C987.5,245.1,983,269.5,988.7,271.7z"/>
		<path class="st18" d="M990.9,239.4c0,0,1.4,16.4,4.8,15.7c3.4-0.7,6.5-1.2,6,3.7c-0.5,4.9-5.2,10.6,5.2,11.5
			c10.4,0.9,25.5-26,22.6-31.1C1021.3,224.5,979,221.5,990.9,239.4z"/>
	</g>
	<rect x="0" y="0" class="st32" width="1200" height="628"/>
</g>
</svg>
