<?xml version="1.0" encoding="UTF-8"?>
<svg xmlns="http://www.w3.org/2000/svg" xmlns:xlink="http://www.w3.org/1999/xlink" viewBox="0 0 500 500" width="500px" height="500px">
<g id="surface37035668">
<path style=" stroke:none;fill-rule:nonzero;fill:rgb(36.078432%,69.411767%,70.980394%);fill-opacity:1;" d="M 66.679688 40 C 52.070312 40 40 52.070312 40 66.679688 L 40 433.320312 C 40 447.929688 52.070312 460 66.679688 460 L 433.320312 460 C 447.929688 460 460 447.96875 460 433.320312 L 460 66.679688 C 460 52.070312 447.96875 40 433.320312 40 Z M 66.679688 60 L 433.320312 60 C 437.03125 60 440 62.96875 440 66.679688 L 440 433.320312 C 440 437.03125 437.03125 440 433.320312 440 L 66.679688 440 C 62.96875 440 60 437.03125 60 433.320312 L 60 66.679688 C 60 62.96875 62.96875 60 66.679688 60 Z M 230 230 L 230 355.742188 C 230 375.039062 222.695312 380 210 380 C 196.71875 380 187.5 371.71875 181.40625 360.976562 L 150 380 C 159.101562 399.257812 181.40625 420 212.34375 420 C 246.5625 420 270 401.796875 270 361.835938 L 270 230 Z M 354.53125 230 C 320.46875 230 298.632812 251.796875 298.632812 280.429688 C 298.632812 311.484375 316.953125 326.171875 344.492188 337.890625 L 354.023438 341.992188 C 371.40625 349.609375 380 354.257812 380 367.34375 C 380 378.242188 371.71875 386.132812 355.898438 386.132812 C 337.070312 386.132812 328.164062 373.359375 320 360 L 290 380 C 301.210938 402.148438 321.328125 420 356.757812 420 C 393.007812 420 420 401.171875 420 366.835938 C 420 334.960938 401.71875 320.78125 369.257812 306.875 L 359.726562 302.8125 C 343.359375 295.703125 336.25 291.09375 336.25 279.648438 C 336.25 270.390625 343.359375 263.28125 354.53125 263.28125 C 365.507812 263.28125 372.539062 267.929688 379.0625 279.648438 L 408.789062 260.585938 C 396.25 238.4375 378.789062 230 354.53125 230 Z M 354.53125 230 "/>
</g>
</svg>
