<?xml version="1.0" encoding="UTF-8"?>
<svg xmlns="http://www.w3.org/2000/svg" xmlns:xlink="http://www.w3.org/1999/xlink" viewBox="0 0 240 240" width="240px" height="240px">
<g id="surface4180070">
<path style=" stroke:none;fill-rule:nonzero;fill:rgb(35.686275%,69.411767%,70.980394%);fill-opacity:1;" d="M 65.472656 85 L 65.65625 85 C 75.421875 85 81.5 78 81.5 69.25 C 81.316406 60.308594 75.421875 53.5 65.839844 53.5 C 56.261719 53.5 50 60.308594 50 69.25 C 50 78 56.074219 85 65.472656 85 Z M 50 95.5 L 81.5 95.5 L 81.5 186.5 L 50 186.5 Z M 190 128.75 C 190 110.386719 175.113281 95.5 156.75 95.5 C 146.066406 95.5 136.582031 100.5625 130.5 108.394531 L 130.5 95.5 L 99 95.5 L 99 186.5 L 130.5 186.5 L 130.5 134 C 130.5 126.269531 136.769531 120 144.5 120 C 152.230469 120 158.5 126.269531 158.5 134 L 158.5 186.5 L 190 186.5 C 190 186.5 190 133.84375 190 128.75 Z M 190 128.75 "/>
</g>
</svg>
